<svg xmlns="http://www.w3.org/2000/svg" width="1120" height="460" viewBox="0 0 1120 460" role="img" aria-label="Advanced security and governance service map"><rect width="1120" height="460" fill="#f8fafc"/><rect x="40" y="40" width="1040" height="380" rx="20" fill="#ffffff" stroke="#cbd5e1"/><text x="70" y="85" font-family="Arial, sans-serif" font-size="28" font-weight="700" fill="#0f172a">Advanced security &amp; governance service map</text><rect x="80" y="120" width="150" height="68" rx="14" fill="#dbeafe" stroke="#60a5fa"/><text x="118" y="161" font-family="Arial, sans-serif" font-size="20" font-weight="700" fill="#1d4ed8">Detective</text><rect x="260" y="120" width="150" height="68" rx="14" fill="#fee2e2" stroke="#f87171"/><text x="303" y="161" font-family="Arial, sans-serif" font-size="20" font-weight="700" fill="#991b1b">Inspector</text><rect x="440" y="120" width="130" height="68" rx="14" fill="#fef3c7" stroke="#f59e0b"/><text x="478" y="161" font-family="Arial, sans-serif" font-size="20" font-weight="700" fill="#92400e">Macie</text><rect x="600" y="120" width="210" height="68" rx="14" fill="#ede9fe" stroke="#a78bfa"/><text x="624" y="161" font-family="Arial, sans-serif" font-size="18" font-weight="700" fill="#5b21b6">Access Analyzer</text><rect x="840" y="120" width="180" height="68" rx="14" fill="#dcfce7" stroke="#4ade80"/><text x="891" y="161" font-family="Arial, sans-serif" font-size="20" font-weight="700" fill="#166534">Backup</text><rect x="250" y="255" width="620" height="84" rx="16" fill="#fff7ed" stroke="#fb923c"/><text x="329" y="296" font-family="Arial, sans-serif" font-size="22" font-weight="700" fill="#9a3412">Findings / compliance / org mapping drilldown</text><text x="376" y="324" font-family="Arial, sans-serif" font-size="16" fill="#9a3412">Security Hub · GuardDuty · Config · CloudTrail selectors · OU/SCP structure</text><line x1="155" y1="188" x2="560" y2="255" stroke="#94a3b8" stroke-width="3"/><line x1="335" y1="188" x2="560" y2="255" stroke="#94a3b8" stroke-width="3"/><line x1="505" y1="188" x2="560" y2="255" stroke="#94a3b8" stroke-width="3"/><line x1="705" y1="188" x2="560" y2="255" stroke="#94a3b8" stroke-width="3"/><line x1="930" y1="188" x2="560" y2="255" stroke="#94a3b8" stroke-width="3"/><text x="84" y="385" font-family="Arial, sans-serif" font-size="18" fill="#475569">Use this review to correlate investigative visibility, findings posture, compliance signals, backup depth, and governance structure.</text></svg>