<svg xmlns="http://www.w3.org/2000/svg" width="980" height="420" viewBox="0 0 980 420" role="img" aria-label="Audit and security service map"><rect width="980" height="420" fill="#f8fafc"/><rect x="40" y="40" width="900" height="340" rx="20" fill="#ffffff" stroke="#cbd5e1"/><text x="70" y="85" font-family="Arial, sans-serif" font-size="28" font-weight="700" fill="#0f172a">Audit &amp; Security service map</text><rect x="80" y="120" width="150" height="70" rx="14" fill="#dbeafe" stroke="#60a5fa"/><text x="110" y="162" font-family="Arial, sans-serif" font-size="20" font-weight="700" fill="#1d4ed8">CloudTrail</text><rect x="280" y="120" width="150" height="70" rx="14" fill="#dcfce7" stroke="#4ade80"/><text x="322" y="162" font-family="Arial, sans-serif" font-size="20" font-weight="700" fill="#166534">Config</text><rect x="480" y="120" width="170" height="70" rx="14" fill="#fee2e2" stroke="#f87171"/><text x="518" y="162" font-family="Arial, sans-serif" font-size="20" font-weight="700" fill="#991b1b">GuardDuty</text><rect x="700" y="120" width="180" height="70" rx="14" fill="#ede9fe" stroke="#a78bfa"/><text x="730" y="162" font-family="Arial, sans-serif" font-size="20" font-weight="700" fill="#5b21b6">Security Hub</text><rect x="340" y="260" width="300" height="80" rx="16" fill="#fff7ed" stroke="#fb923c"/><text x="416" y="308" font-family="Arial, sans-serif" font-size="22" font-weight="700" fill="#9a3412">WAF posture</text><line x1="155" y1="190" x2="490" y2="260" stroke="#94a3b8" stroke-width="3"/><line x1="355" y1="190" x2="490" y2="260" stroke="#94a3b8" stroke-width="3"/><line x1="565" y1="190" x2="490" y2="260" stroke="#94a3b8" stroke-width="3"/><line x1="790" y1="190" x2="490" y2="260" stroke="#94a3b8" stroke-width="3"/><text x="84" y="370" font-family="Arial, sans-serif" font-size="18" fill="#475569">Use this flow to review audit evidence, compliance state, detection posture, and edge protection together.</text></svg>